<svg xmlns="http://www.w3.org/2000/svg" width="1200" height="700" viewBox="0 0 1200 700"><rect width="1200" height="700" fill="white"/><text x="60" y="65" font-family="Arial" font-size="34" font-weight="700">Anhedonia &amp; Music — fMRI Study Summary</text><text x="60" y="100" font-family="Arial" font-size="18" fill="#555">Original visual summary based on the published study</text><line x1="60" y1="125" x2="1140" y2="125" stroke="#ccc"/><text x="60" y="170" font-family="Arial" font-size="22" font-weight="700">Three participant groups</text><rect x="60" y="200" width="260" height="100" rx="16" fill="#f4f4f4" stroke="#888"/><text x="190" y="242" text-anchor="middle" font-family="Arial" font-size="23">20 healthy</text><text x="190" y="272" text-anchor="middle" font-family="Arial" font-size="17">Control group</text><rect x="365" y="200" width="260" height="100" rx="16" fill="#f4f4f4" stroke="#888"/><text x="495" y="242" text-anchor="middle" font-family="Arial" font-size="22">25 depression</text><text x="495" y="272" text-anchor="middle" font-family="Arial" font-size="17">Without anhedonia</text><rect x="670" y="200" width="260" height="100" rx="16" fill="#f4f4f4" stroke="#888"/><text x="800" y="242" text-anchor="middle" font-family="Arial" font-size="22">24 depression</text><text x="800" y="272" text-anchor="middle" font-family="Arial" font-size="17">With anhedonia</text><text x="60" y="350" font-family="Arial" font-size="22" font-weight="700">Music stimulation</text><rect x="60" y="375" width="270" height="90" rx="16" fill="#fafafa" stroke="#999"/><text x="195" y="414" text-anchor="middle" font-family="Arial" font-size="20">50 Iranian tracks</text><text x="195" y="442" text-anchor="middle" font-family="Arial" font-size="17">12 seconds each</text><line x1="330" y1="420" x2="410" y2="420" stroke="#555" stroke-width="4"/><polygon points="410,420 395,412 395,428" fill="#555"/><rect x="420" y="375" width="300" height="90" rx="16" fill="#fafafa" stroke="#999"/><text x="570" y="414" text-anchor="middle" font-family="Arial" font-size="20">3T fMRI</text><text x="570" y="442" text-anchor="middle" font-family="Arial" font-size="17">Task-related brain responses</text><line x1="720" y1="420" x2="800" y2="420" stroke="#555" stroke-width="4"/><polygon points="800,420 785,412 785,428" fill="#555"/><rect x="810" y="375" width="300" height="90" rx="16" fill="#fafafa" stroke="#999"/><text x="960" y="414" text-anchor="middle" font-family="Arial" font-size="20">SPM12 / MATLAB</text><text x="960" y="442" text-anchor="middle" font-family="Arial" font-size="17">Activation + connectivity</text><text x="60" y="520" font-family="Arial" font-size="22" font-weight="700">Frontolimbic effective connectivity</text><circle cx="185" cy="585" r="40" fill="#ddd" stroke="#555"/><text x="185" y="590" text-anchor="middle" font-family="Arial" font-size="13">sgACC</text><circle cx="430" cy="585" r="40" fill="#ddd" stroke="#555"/><text x="430" y="590" text-anchor="middle" font-family="Arial" font-size="13">subgenual ACC</text><circle cx="675" cy="585" r="40" fill="#ddd" stroke="#555"/><text x="675" y="590" text-anchor="middle" font-family="Arial" font-size="13">AMYG</text><circle cx="920" cy="585" r="40" fill="#ddd" stroke="#555"/><text x="920" y="590" text-anchor="middle" font-family="Arial" font-size="13">FFG</text><line x1="225" y1="585" x2="390" y2="585" stroke="#444" stroke-width="3"/><line x1="470" y1="585" x2="635" y2="585" stroke="#444" stroke-width="3"/><line x1="715" y1="585" x2="880" y2="585" stroke="#444" stroke-width="3"/><text x="600" y="665" text-anchor="middle" font-family="Arial" font-size="15" fill="#555">DCM was used to evaluate effective connectivity in the selected frontolimbic network.</text></svg>